<svg xmlns="http://www.w3.org/2000/svg"  viewBox="0 0 100 100" width="50px" height="50px"><path fill="#ee3e54" d="M13 27A2 2 0 1 0 13 31A2 2 0 1 0 13 27Z"/><path fill="#f1bc19" d="M77 12A1 1 0 1 0 77 14A1 1 0 1 0 77 12Z"/><path fill="#fce0a2" d="M50 13A37 37 0 1 0 50 87A37 37 0 1 0 50 13Z"/><path fill="#f1bc19" d="M83 11A4 4 0 1 0 83 19A4 4 0 1 0 83 11Z"/><path fill="#ee3e54" d="M87 22A2 2 0 1 0 87 26A2 2 0 1 0 87 22Z"/><path fill="#fbcd59" d="M81 74A2 2 0 1 0 81 78 2 2 0 1 0 81 74zM15 59A4 4 0 1 0 15 67 4 4 0 1 0 15 59z"/><path fill="#ee3e54" d="M25 85A2 2 0 1 0 25 89A2 2 0 1 0 25 85Z"/><path fill="#fff" d="M18.5 51A2.5 2.5 0 1 0 18.5 56A2.5 2.5 0 1 0 18.5 51Z"/><path fill="#f1bc19" d="M21 66A1 1 0 1 0 21 68A1 1 0 1 0 21 66Z"/><path fill="#fff" d="M80 33A1 1 0 1 0 80 35A1 1 0 1 0 80 33Z"/><g><path fill="#4985c1" d="M50 25.625A24.25 24.25 0 1 0 50 74.125A24.25 24.25 0 1 0 50 25.625Z"/><path fill="#472b29" d="M50,74.825c-13.757,0-24.95-11.192-24.95-24.95S36.243,24.925,50,24.925s24.95,11.192,24.95,24.95 S63.757,74.825,50,74.825z M50,26.325c-12.985,0-23.55,10.564-23.55,23.55S37.015,73.425,50,73.425s23.55-10.564,23.55-23.55 S62.985,26.325,50,26.325z"/></g><g><path fill="#472b29" d="M69.424,44.625c-0.214,0-0.412-0.139-0.478-0.354c-0.088-0.287-0.183-0.571-0.284-0.853 c-0.392-1.094-0.886-2.159-1.47-3.169c-0.139-0.238-0.057-0.545,0.182-0.683c0.239-0.139,0.545-0.056,0.683,0.183 c0.614,1.061,1.134,2.182,1.546,3.331c0.106,0.297,0.206,0.595,0.298,0.897c0.081,0.264-0.067,0.544-0.332,0.625 C69.521,44.618,69.472,44.625,69.424,44.625z"/></g><g><path fill="#472b29" d="M50,70.75c-11.511,0-20.875-9.337-20.875-20.813S38.489,29.125,50,29.125 c5.975,0,11.674,2.56,15.636,7.023c0.299,0.337,0.588,0.685,0.865,1.041c0.169,0.218,0.13,0.531-0.087,0.701 c-0.218,0.171-0.532,0.131-0.702-0.088c-0.264-0.339-0.54-0.669-0.824-0.99c-3.772-4.25-9.199-6.688-14.888-6.688 c-10.959,0-19.875,8.888-19.875,19.813S39.041,69.75,50,69.75s19.875-8.888,19.875-19.813c0-0.995-0.075-1.996-0.222-2.973 c-0.041-0.272,0.147-0.527,0.42-0.568c0.28-0.044,0.528,0.147,0.569,0.42c0.154,1.025,0.233,2.076,0.233,3.121 C70.875,61.413,61.511,70.75,50,70.75z"/></g><g><path fill="#fffef4" d="M46.43,42.147c0,0.666,0,3.383,0,3.383h-2.327v3.877h2.327v12.407h5.428V49.407h3.189 c0,0,0.299-1.85,0.442-3.877c-0.416,0-4.407,0-4.407,0s0-2.439,0-2.869c0-0.429,0.562-1.009,1.118-1.009c0.556,0,2.422,0,3.534,0 c0-0.611,0-2.709,0-4.652c-1.479,0-3.165,0-3.904,0C46.3,37.006,46.43,41.479,46.43,42.147z"/><path fill="#472b29" d="M51.859,62.064H46.43c-0.138,0-0.25-0.112-0.25-0.25V49.657h-2.077c-0.138,0-0.25-0.112-0.25-0.25 V45.53c0-0.138,0.112-0.25,0.25-0.25h2.077v-3.134h0.25l-0.25-0.044c-0.006-1.643,0.461-2.948,1.389-3.88 c0.971-0.976,2.405-1.471,4.261-1.473h3.904c0.138,0,0.25,0.112,0.25,0.25v4.652c0,0.138-0.112,0.25-0.25,0.25H52.2 c-0.43,0-0.868,0.486-0.868,0.759v2.619h4.157c0.069,0,0.136,0.029,0.183,0.079c0.047,0.051,0.071,0.119,0.066,0.188 c-0.143,2.015-0.441,3.881-0.445,3.899c-0.02,0.121-0.124,0.21-0.247,0.21h-2.938v12.157 C52.109,61.952,51.997,62.064,51.859,62.064z M46.68,61.564h4.929V49.407c0-0.138,0.112-0.25,0.25-0.25h2.974 c0.076-0.51,0.271-1.88,0.387-3.377h-4.138c-0.138,0-0.25-0.112-0.25-0.25v-2.869c0-0.55,0.663-1.259,1.368-1.259h3.284V37.25 h-3.654c-1.719,0.002-3.034,0.448-3.907,1.325c-0.831,0.835-1.249,2.021-1.243,3.525v0.046v3.384c0,0.138-0.112,0.25-0.25,0.25 h-2.077v3.377h2.077c0.138,0,0.25,0.112,0.25,0.25V61.564z"/></g></svg>